<svg width="36" height="37" viewBox="0 0 36 37" fill="none" xmlns="http://www.w3.org/2000/svg">
<path d="M8.12002 0C7.72313 0 7.31852 0.14541 7.03197 0.431953C6.74543 0.718496 6.60002 1.12311 6.60002 1.52V3.04H2.04002C1.64313 3.04 1.23852 3.18541 0.951973 3.47195C0.665429 3.7585 0.52002 4.16311 0.52002 4.56V10.64V34.96C0.52002 35.3569 0.665429 35.7615 0.951973 36.048C1.23852 36.3346 1.64313 36.48 2.04002 36.48H33.96C34.3569 36.48 34.7615 36.3346 35.0481 36.048C35.3346 35.7615 35.48 35.3569 35.48 34.96V10.64V4.56C35.48 4.16311 35.3346 3.7585 35.0481 3.47195C34.7615 3.18541 34.3569 3.04 33.96 3.04H29.4V1.52C29.4 1.12311 29.2546 0.718496 28.9681 0.431953C28.6815 0.14541 28.2769 0 27.88 0H26.36C25.9631 0 25.5585 0.14541 25.272 0.431953C24.9854 0.718496 24.84 1.12311 24.84 1.52V3.04H11.16V1.52C11.16 1.12311 11.0146 0.718496 10.7281 0.431953C10.4415 0.14541 10.0369 0 9.64002 0H8.12002ZM8.12002 1.52H9.64002V6.08H8.12002V1.52ZM26.36 1.52H27.88V3.67234C27.8665 3.75442 27.8665 3.83816 27.88 3.92023V6.08H26.36V1.52ZM2.04002 4.56H6.60002V6.08C6.60002 6.47689 6.74543 6.8815 7.03197 7.16805C7.31852 7.45459 7.72313 7.6 8.12002 7.6H9.64002C10.0369 7.6 10.4415 7.45459 10.7281 7.16805C11.0146 6.8815 11.16 6.47689 11.16 6.08V4.56H24.84V6.08C24.84 6.47689 24.9854 6.8815 25.272 7.16805C25.5585 7.45459 25.9631 7.6 26.36 7.6H27.88C28.2769 7.6 28.6815 7.45459 28.9681 7.16805C29.2546 6.8815 29.4 6.47689 29.4 6.08V4.56H33.96V9.88H2.04002V4.56ZM2.04002 11.4H33.96V34.96H2.04002V11.4ZM12.6681 14.4296C12.6318 14.4305 12.5956 14.434 12.5598 14.44H7.36002C7.15846 14.44 6.96516 14.5201 6.82264 14.6626C6.68012 14.8051 6.60004 14.9984 6.60002 15.2V20.3923C6.58645 20.4744 6.58645 20.5582 6.60002 20.6402V25.7123C6.58645 25.7944 6.58645 25.8782 6.60002 25.9602V31.16C6.60004 31.3616 6.68012 31.5549 6.82264 31.6974C6.96516 31.8399 7.15846 31.92 7.36002 31.92H12.5524C12.6344 31.9336 12.7182 31.9336 12.8003 31.92H17.8724C17.9544 31.9336 18.0382 31.9336 18.1203 31.92H21.8H23.1924C23.2744 31.9336 23.3582 31.9336 23.4403 31.92H28.64C28.8416 31.92 29.0349 31.8399 29.1774 31.6974C29.3199 31.5549 29.4 31.3616 29.4 31.16V25.9677C29.4136 25.8856 29.4136 25.8018 29.4 25.7198V20.6477C29.4136 20.5656 29.4136 20.4818 29.4 20.3998V15.2C29.4 14.9984 29.3199 14.8051 29.1774 14.6626C29.0349 14.5201 28.8416 14.44 28.64 14.44H23.4477C23.3656 14.4264 23.2819 14.4264 23.1998 14.44H18.1277C18.0456 14.4264 17.9619 14.4264 17.8798 14.44H12.8077C12.7616 14.4323 12.7149 14.4288 12.6681 14.4296ZM8.12002 15.96H11.92V19.76H8.12002V15.96ZM13.44 15.96H17.24V19.76H13.44V15.96ZM18.76 15.96H22.56V19.76H18.76V15.96ZM24.08 15.96H27.88V19.76H24.08V15.96ZM8.12002 21.28H11.92V25.08H8.12002V21.28ZM13.44 21.28H17.24V25.08H13.44V21.28ZM18.76 21.28H22.56V25.08H18.76V21.28ZM24.08 21.28H27.88V25.08H24.08V21.28ZM8.12002 26.6H11.92V30.4H8.12002V26.6ZM13.44 26.6H17.24V30.4H13.44V26.6ZM18.76 26.6H22.56V30.4H21.8H18.76V26.6ZM24.08 26.6H27.88V30.4H24.08V26.6Z" fill="url(#paint0_linear_51_1278)"/>
<defs>
<linearGradient id="paint0_linear_51_1278" x1="18" y1="0" x2="18" y2="36.48" gradientUnits="userSpaceOnUse">
<stop stop-color="#FFC619"/>
<stop offset="0.473958" stop-color="#F69020"/>
<stop offset="1" stop-color="#EA422A"/>
</linearGradient>
</defs>
</svg>
