<svg width="35" height="39" viewBox="0 0 35 39" fill="none" xmlns="http://www.w3.org/2000/svg">
<path d="M15.8601 0.639893V3.99036C7.122 4.81822 0.270508 12.1875 0.270508 21.1399C0.270508 30.6456 7.99439 38.3695 17.5001 38.3695C27.0058 38.3695 34.7297 30.6456 34.7297 21.1399C34.7297 12.1875 27.8782 4.81822 19.1401 3.99036V0.639893H15.8601ZM31.4754 1.45989L29.1563 3.77896L30.2149 4.83759L28.9801 6.07399L30.3398 7.43372L31.5747 6.19731L32.6349 7.25755L34.9539 4.93849L31.4754 1.45989ZM17.5001 5.5695C26.1093 5.5695 33.0705 12.5307 33.0705 21.1399C33.0705 29.7491 26.1093 36.7103 17.5001 36.7103C8.89091 36.7103 1.92973 29.7491 1.92973 21.1399C1.92973 12.5307 8.89091 5.5695 17.5001 5.5695ZM17.4873 8.81907C17.2675 8.82242 17.0581 8.91285 16.905 9.0705C16.7518 9.22814 16.6675 9.44013 16.6705 9.65989V18.8256C16.1935 18.9965 15.7809 19.3105 15.4891 19.7247C15.1972 20.139 15.0405 20.6332 15.0401 21.1399C15.0408 21.6463 15.1977 22.1402 15.4895 22.5541C15.7813 22.968 16.1938 23.2818 16.6705 23.4526V25.2399C16.6705 25.4599 16.7579 25.6709 16.9135 25.8265C17.0691 25.9821 17.2801 26.0695 17.5001 26.0695C17.7201 26.0695 17.9312 25.9821 18.0867 25.8265C18.2423 25.6709 18.3297 25.4599 18.3297 25.2399V23.4542C18.8067 23.2833 19.2194 22.9693 19.5112 22.555C19.803 22.1408 19.9598 21.6466 19.9601 21.1399C19.9595 20.6335 19.8025 20.1396 19.5107 19.7257C19.2189 19.3118 18.8065 18.998 18.3297 18.8272V9.65989C18.3313 9.54892 18.3105 9.43876 18.2687 9.33596C18.2269 9.23315 18.1648 9.13978 18.0863 9.06137C18.0077 8.98297 17.9142 8.92112 17.8114 8.8795C17.7085 8.83788 17.5983 8.81734 17.4873 8.81907Z" fill="url(#paint0_linear_51_1297)"/>
<defs>
<linearGradient id="paint0_linear_51_1297" x1="17.6122" y1="0.639893" x2="17.6122" y2="38.3695" gradientUnits="userSpaceOnUse">
<stop stop-color="#FFC619"/>
<stop offset="0.494792" stop-color="#F69020"/>
<stop offset="1" stop-color="#EA422A"/>
</linearGradient>
</defs>
</svg>
