<svg width="39" height="39" viewBox="0 0 39 39" fill="none" xmlns="http://www.w3.org/2000/svg">
<path d="M11.5162 0.704102C6.65537 2.74237 2.74237 6.65537 0.704102 11.5162L2.21598 12.1505C4.08583 7.69123 7.69123 4.08583 12.1505 2.21598L11.5162 0.704102ZM19.5 2.28004C9.99941 2.28004 2.28004 9.99941 2.28004 19.5C2.28004 29.0007 9.99941 36.72 19.5 36.72C29.0007 36.72 36.72 29.0007 36.72 19.5C36.72 9.99941 29.0007 2.28004 19.5 2.28004ZM19.5 3.92004C28.1143 3.92004 35.08 10.8857 35.08 19.5C35.08 28.1143 28.1143 35.08 19.5 35.08C10.8857 35.08 3.92004 28.1143 3.92004 19.5C3.92004 10.8857 10.8857 3.92004 19.5 3.92004ZM18.68 7.20004V18.0827C18.4312 18.2263 18.2244 18.4329 18.0805 18.6817C17.9366 18.9304 17.8605 19.2126 17.86 19.5C17.86 19.935 18.0328 20.3521 18.3404 20.6597C18.6479 20.9673 19.0651 21.14 19.5 21.14C19.6434 21.14 19.786 21.1211 19.9245 21.084L24.6603 25.8198L25.8198 24.6603L21.0824 19.9228C21.1199 19.785 21.1393 19.6429 21.14 19.5C21.1398 19.2124 21.0639 18.9298 20.92 18.6808C20.7761 18.4317 20.5692 18.2249 20.32 18.0811V7.20004H18.68ZM36.7889 26.84C34.84 31.3151 31.3059 34.9155 26.8496 36.7841L27.4838 38.296C32.3476 36.2565 36.1811 32.3401 38.2912 27.495L36.7889 26.84Z" fill="url(#paint0_linear_51_1259)"/>
<defs>
<linearGradient id="paint0_linear_51_1259" x1="19.4976" y1="0.704102" x2="19.4976" y2="38.296" gradientUnits="userSpaceOnUse">
<stop stop-color="#FFC619"/>
<stop offset="0.484375" stop-color="#F69020"/>
<stop offset="1" stop-color="#EA422A"/>
</linearGradient>
</defs>
</svg>
