<svg width="48" height="26" viewBox="0 0 48 26" fill="none" xmlns="http://www.w3.org/2000/svg">
<path d="M23.9999 0C10.67 0 0.240125 12.3496 0.240125 12.3496C0.085006 12.5308 -0.000244141 12.7615 -0.000244141 13C-0.000244141 13.2385 0.085006 13.4692 0.240125 13.6504C0.240125 13.6504 10.67 26 23.9999 26C37.3298 26 47.7597 13.6504 47.7597 13.6504C47.9148 13.4692 48 13.2385 48 13C48 12.7615 47.9148 12.5308 47.7597 12.3496C47.7597 12.3496 37.3298 0 23.9999 0ZM23.9999 2C26.666 2 29.2121 2.55316 31.5682 3.4043C33.1399 5.20828 33.9999 7.3937 33.9999 10C33.9999 15.5645 29.5644 20 23.9999 20C18.4354 20 13.9999 15.5645 13.9999 10C13.9999 7.52965 14.9534 5.21556 16.4432 3.40039C18.7962 2.55165 21.3381 2 23.9999 2ZM13.1932 4.81055C12.442 6.39239 11.9999 8.15076 11.9999 10C11.9999 16.6355 17.3644 22 23.9999 22C30.6354 22 35.9999 16.6355 35.9999 10C35.9999 8.13383 35.5998 6.40067 34.869 4.8418C40.5283 7.71958 44.5866 11.8972 45.6054 13C44.011 14.7259 34.992 24 23.9999 24C13.0077 24 3.98877 14.7259 2.39442 13C3.41688 11.8931 7.50158 7.6892 13.1932 4.81055ZM23.9999 5C22.6738 5 21.402 5.52678 20.4644 6.46447C19.5267 7.40215 18.9999 8.67392 18.9999 10C18.9999 11.3261 19.5267 12.5979 20.4644 13.5355C21.402 14.4732 22.6738 15 23.9999 15C25.326 15 26.5977 14.4732 27.5354 13.5355C28.4731 12.5979 28.9999 11.3261 28.9999 10C28.9999 8.67392 28.4731 7.40215 27.5354 6.46447C26.5977 5.52678 25.326 5 23.9999 5Z" fill="white"/>
</svg>
