<svg width="39" height="37" viewBox="0 0 39 37" fill="none" xmlns="http://www.w3.org/2000/svg">
<path d="M29.284 0.459993C27.7427 0.488083 26.5044 0.936122 25.6613 1.74925C24.8182 2.56238 24.425 3.69134 24.3961 4.8755C24.3961 4.87603 24.3961 4.87657 24.3961 4.8771C24.3774 5.64871 24.5373 6.34492 24.7212 7.11128C24.5096 7.43052 24.3606 7.8179 24.4217 8.33007C24.4217 8.3306 24.4217 8.33114 24.4217 8.33167C24.4925 8.92002 24.655 9.37299 24.9246 9.71702C25.0481 9.87462 25.229 9.88636 25.3874 9.98128C25.5548 10.5342 25.7827 11.059 26.1017 11.4787C26.3057 11.7472 26.5147 11.9869 26.7055 12.1818C26.7513 12.2286 26.807 12.2565 26.8465 12.2971C26.8498 12.7136 26.8513 13.1045 26.8208 13.5367C26.7219 13.7527 26.4183 14.0126 25.767 14.2815C25.3988 14.4335 24.9576 14.585 24.4906 14.7491C24.5153 14.5264 24.5338 14.2913 24.537 14.0284C24.537 14.0279 24.537 14.0274 24.537 14.0268C24.546 13.2528 24.42 12.4308 23.9861 11.7062C23.5838 11.0344 22.8474 10.5247 21.9281 10.3352C21.3441 9.7519 20.5232 9.47999 19.5994 9.47999C19.5946 9.47995 19.5898 9.47995 19.585 9.47999C18.0437 9.50809 16.8054 9.95612 15.9622 10.7692C15.1191 11.5824 14.7276 12.7113 14.6986 13.8955C14.6986 13.896 14.6986 13.8966 14.6986 13.8971C14.6916 14.1873 14.7165 14.4661 14.7515 14.7427C14.1939 14.5529 13.6513 14.3815 13.2028 14.2126C12.5295 13.959 12.2121 13.6958 12.1329 13.5367C12.1029 13.1069 12.1038 12.7175 12.1073 12.3019C12.147 12.2614 12.2022 12.2334 12.2482 12.1866C12.4397 11.9919 12.6486 11.7535 12.8536 11.4851C13.174 11.0657 13.4028 10.5394 13.5711 9.98609C13.7307 9.89099 13.9132 9.88017 14.0372 9.72183C14.3066 9.37774 14.4676 8.92406 14.5385 8.33648V8.33488C14.6001 7.82065 14.4503 7.42998 14.2358 7.10968C14.39 6.53199 14.5436 5.90243 14.5545 5.01323C14.5635 4.23915 14.4375 3.41558 14.0035 2.69097C13.6013 2.01923 12.8649 1.50951 11.9455 1.32003C11.3618 0.736884 10.542 0.464797 9.61846 0.464797C9.61312 0.464745 9.60778 0.464745 9.60244 0.464797C8.06115 0.49334 6.82425 0.94085 5.98131 1.75406C5.13837 2.56726 4.74548 3.69634 4.71607 4.88031C4.71607 4.88084 4.71607 4.88137 4.71607 4.88191C4.69742 5.65351 4.85734 6.34973 5.04119 7.11609C4.82955 7.43533 4.68059 7.8227 4.7417 8.33488C4.7417 8.33541 4.7417 8.33594 4.7417 8.33648C4.81255 8.92505 4.97447 9.37939 5.24459 9.72343C5.36866 9.88146 5.5514 9.89121 5.71064 9.98609C5.87817 10.5381 6.10312 11.0643 6.42174 11.4835C6.62573 11.752 6.8347 11.9901 7.02553 12.185C7.0713 12.2318 7.12695 12.2597 7.16646 12.3003C7.16983 12.719 7.17169 13.1099 7.14084 13.5448C7.05828 13.7244 6.86106 13.9282 6.3865 14.1534C5.88402 14.3917 5.17721 14.6132 4.431 14.8853C3.68478 15.1573 2.89081 15.4813 2.19041 16.0096C1.49001 16.5378 0.890243 17.3084 0.660917 18.3254C0.631666 18.4323 0.624384 18.544 0.639513 18.6538C0.654641 18.7636 0.691865 18.8692 0.748937 18.9642C0.806009 19.0592 0.881745 19.1416 0.97157 19.2066C1.06139 19.2715 1.16344 19.3175 1.27156 19.3419C1.37967 19.3663 1.4916 19.3685 1.60059 19.3484C1.70958 19.3283 1.81336 19.2863 1.90568 19.225C1.99799 19.1637 2.07692 19.0843 2.1377 18.9916C2.19847 18.8989 2.23983 18.7949 2.25928 18.6858C2.39854 18.0681 2.70395 17.6764 3.17697 17.3196C3.64999 16.9629 4.29862 16.6791 4.99314 16.426C5.68766 16.1728 6.41992 15.9517 7.08799 15.6348C7.75606 15.3178 8.42973 14.8701 8.72318 14.0813C8.74862 14.0127 8.76478 13.9411 8.77123 13.8683C8.83986 13.1055 8.81447 12.5694 8.81447 11.94C8.81437 11.7906 8.77344 11.644 8.6961 11.5161C8.61876 11.3883 8.50795 11.284 8.37564 11.2145C8.50931 11.2845 8.33518 11.1785 8.19787 11.0383C8.06057 10.8981 7.88963 10.7025 7.72861 10.4906C7.40659 10.0668 7.15446 9.52145 7.14084 9.39351C7.12309 9.227 7.0548 9.06992 6.94515 8.94337C6.83549 8.81682 6.68973 8.72688 6.52744 8.68562C6.50026 8.64758 6.4148 8.50923 6.37049 8.14109C6.35998 8.05298 6.37366 8.00923 6.3865 7.98413C6.5167 7.8867 6.61499 7.75277 6.66889 7.59935C6.72279 7.44592 6.72986 7.27994 6.6892 7.12249C6.45119 6.20653 6.33885 5.63289 6.35607 4.92034C6.37781 4.05846 6.63243 3.4048 7.12002 2.93441C7.60568 2.46588 8.38024 2.1307 9.61846 2.1048H9.62006C10.447 2.1054 10.8702 2.37106 10.9237 2.46515C10.9859 2.57447 11.0725 2.66802 11.1766 2.73856C11.2807 2.8091 11.3997 2.85474 11.5243 2.87195C12.1225 2.95499 12.3843 3.17765 12.5974 3.53339C12.8104 3.88913 12.9211 4.42576 12.9145 4.99402C12.9032 5.9229 12.7546 6.62528 12.607 7.06804C12.5523 7.23187 12.5507 7.4088 12.6024 7.57359C12.6542 7.73838 12.7567 7.88262 12.8953 7.98573C12.908 8.01105 12.9216 8.0536 12.9113 8.13948C12.8669 8.50857 12.7813 8.64771 12.7543 8.68562C12.592 8.72688 12.4463 8.81682 12.3366 8.94337C12.227 9.06992 12.1587 9.227 12.1409 9.39351C12.1275 9.51926 11.8753 10.0651 11.5515 10.489C11.3897 10.7009 11.2172 10.8963 11.0791 11.0367C10.941 11.1771 10.7656 11.2839 10.8981 11.2145C10.7658 11.284 10.655 11.3883 10.5777 11.5161C10.5003 11.644 10.4594 11.7906 10.4593 11.94C10.4593 12.5679 10.4338 13.1055 10.5025 13.8683C10.509 13.9411 10.5251 14.0127 10.5506 14.0813C10.9067 15.0361 11.7954 15.4362 12.6246 15.7485C13.375 16.0312 14.1633 16.2527 14.8283 16.5157C14.7362 16.7545 14.6855 17.0253 14.7242 17.3501C14.7242 17.3506 14.7242 17.3511 14.7242 17.3517C14.7951 17.94 14.9559 18.393 15.2255 18.737C15.3497 18.8955 15.5322 18.9078 15.6916 19.0029C15.8591 19.5548 16.0857 20.0795 16.4043 20.4987C16.6083 20.7672 16.8156 21.0069 17.0065 21.2018C17.0522 21.2486 17.1079 21.2765 17.1474 21.3171C17.1508 21.7331 17.1521 22.1237 17.1218 22.5551C17.0193 22.7793 16.6901 23.0505 15.9991 23.3287C15.5219 23.5208 14.9358 23.7077 14.3254 23.9341C14.4422 23.4531 14.5459 22.9311 14.5545 22.2284C14.5635 21.4543 14.4375 20.6308 14.0035 19.9062C13.6008 19.2336 12.8634 18.7224 11.9423 18.5336C11.3587 17.9524 10.5401 17.68 9.61846 17.68C9.61365 17.68 9.60885 17.68 9.60404 17.68C8.06271 17.7081 6.82443 18.1561 5.98131 18.9692C5.13818 19.7824 4.74501 20.9113 4.71607 22.0955C4.71607 22.096 4.71607 22.0966 4.71607 22.0971C4.69742 22.8687 4.85734 23.5649 5.04119 24.3313C4.82955 24.6505 4.68059 25.0379 4.7417 25.5501C4.7417 25.5506 4.7417 25.5511 4.7417 25.5517C4.81252 26.14 4.97501 26.593 5.24459 26.937C5.36808 27.0946 5.54902 27.1064 5.70744 27.2013C5.87479 27.7542 6.10274 28.279 6.42174 28.6987C6.62573 28.9672 6.8347 29.2069 7.02553 29.4018C7.0713 29.4486 7.12695 29.4765 7.16646 29.5171C7.16982 29.9347 7.17154 30.3262 7.14084 30.76C7.05844 30.9394 6.85943 31.1434 6.3849 31.3685C5.88249 31.6069 5.17726 31.83 4.431 32.1021C3.68473 32.3741 2.88927 32.6981 2.18881 33.2264C1.48834 33.7546 0.888648 34.5235 0.659316 35.5406C0.611394 35.7528 0.649688 35.9752 0.765779 36.1592C0.88187 36.3431 1.06625 36.4733 1.27838 36.5213C1.4905 36.5693 1.713 36.5311 1.89695 36.4151C2.08089 36.299 2.21122 36.1147 2.25928 35.9026C2.39853 35.2849 2.70389 34.8916 3.17697 34.5348C3.65006 34.1781 4.29696 33.896 4.99154 33.6428C5.68612 33.3896 6.41993 33.1686 7.08799 32.8516C7.75604 32.5346 8.4284 32.0855 8.72158 31.2965C8.74702 31.2279 8.76318 31.1563 8.76963 31.0835C8.83825 30.3207 8.81447 29.7846 8.81447 29.1552C8.81422 29.0056 8.77304 28.8589 8.69541 28.731C8.61778 28.6031 8.50665 28.4989 8.37404 28.4297C8.5077 28.4997 8.33357 28.3953 8.19627 28.2551C8.05897 28.1149 7.88802 27.9193 7.72701 27.7074C7.40498 27.2836 7.15286 26.7366 7.13924 26.6087C7.1214 26.4429 7.05344 26.2865 6.94442 26.1603C6.8354 26.0341 6.6905 25.9441 6.52904 25.9024C6.5021 25.8649 6.41498 25.7259 6.37049 25.3563C6.35998 25.2682 6.37366 25.2244 6.3865 25.1993C6.5167 25.1019 6.61499 24.968 6.66889 24.8145C6.72279 24.6611 6.72986 24.4951 6.6892 24.3377C6.45119 23.4217 6.33885 22.8481 6.35607 22.1355C6.37715 21.273 6.63048 20.6202 7.11842 20.1496C7.60484 19.6805 8.38177 19.3462 9.62326 19.3216C10.4464 19.3236 10.8697 19.5864 10.9221 19.6787C10.9843 19.7881 11.0709 19.8816 11.175 19.9522C11.2791 20.0227 11.3981 20.0683 11.5227 20.0855C12.1209 20.1686 12.3827 20.3928 12.5958 20.7486C12.8088 21.1043 12.9211 21.641 12.9145 22.2092C12.9032 23.1381 12.7546 23.8405 12.607 24.2832C12.5525 24.4467 12.5508 24.6232 12.6023 24.7876C12.6537 24.9521 12.7557 25.0961 12.8937 25.1993C12.9063 25.224 12.9203 25.2669 12.9097 25.3547C12.8651 25.725 12.7778 25.8652 12.7511 25.9024C12.5897 25.9441 12.4448 26.0341 12.3357 26.1603C12.2267 26.2865 12.1588 26.4429 12.1409 26.6087C12.1275 26.7345 11.8737 27.2803 11.5499 27.7042C11.3881 27.9161 11.2172 28.1115 11.0791 28.2519C10.941 28.3923 10.7656 28.4975 10.8981 28.4281C10.7656 28.4977 10.6546 28.6022 10.5772 28.7304C10.4999 28.8586 10.4591 29.0055 10.4593 29.1552C10.4593 29.7831 10.4322 30.3207 10.5009 31.0835C10.5116 31.2008 10.5475 31.3145 10.6061 31.4168C10.6647 31.519 10.7446 31.6075 10.8404 31.676C11.1842 32.2061 11.6714 32.5961 12.2066 32.85C12.8747 33.1669 13.6085 33.388 14.303 33.6412C14.9975 33.8943 15.6446 34.1781 16.1176 34.5348C16.5906 34.8916 16.896 35.2833 17.0353 35.901C17.0578 36.0072 17.1012 36.1078 17.163 36.1971C17.2247 36.2864 17.3035 36.3625 17.3949 36.4211C17.4863 36.4797 17.5884 36.5195 17.6953 36.5384C17.8022 36.5572 17.9118 36.5546 18.0177 36.5307C18.1236 36.5069 18.2237 36.4622 18.3122 36.3994C18.4007 36.3366 18.4759 36.2568 18.5333 36.1647C18.5908 36.0726 18.6294 35.97 18.6469 35.8629C18.6644 35.7557 18.6604 35.6462 18.6353 35.5406C18.4059 34.5236 17.8046 33.753 17.1042 33.2248C16.4038 32.6965 15.6098 32.3725 14.8636 32.1005C14.1174 31.8284 13.4121 31.6069 12.9097 31.3685C12.4211 31.1368 12.2074 30.9255 12.1313 30.7423C12.102 30.317 12.1022 29.9294 12.1057 29.5171C12.1455 29.4764 12.202 29.4488 12.2482 29.4018C12.4397 29.2071 12.6486 28.9687 12.8536 28.7003C13.174 28.2809 13.4028 27.7546 13.5711 27.2013C13.7305 27.1062 13.9133 27.0952 14.0372 26.937C14.2939 26.6091 14.45 26.1781 14.5256 25.6301C15.1934 25.3637 15.9177 25.1293 16.6109 24.8502C17.4574 24.5093 18.3448 24.0625 18.7041 23.0965C18.7296 23.0279 18.7457 22.9563 18.7522 22.8835C18.8208 22.1207 18.7954 21.5846 18.7954 20.9552C18.7953 20.8058 18.7544 20.6592 18.677 20.5313C18.5997 20.4035 18.4889 20.2992 18.3566 20.2297C18.4902 20.2997 18.3161 20.1953 18.1788 20.0551C18.0415 19.9149 17.8706 19.7193 17.7096 19.5074C17.3875 19.0836 17.1354 18.5366 17.1218 18.4087C17.104 18.2422 17.0357 18.0851 16.9261 17.9586C16.8164 17.832 16.6707 17.7421 16.5084 17.7008C16.4811 17.6626 16.3958 17.5246 16.3514 17.1563C16.3407 17.0661 16.3557 17.0221 16.369 16.9977C16.4989 16.9004 16.597 16.7667 16.6509 16.6136C16.7048 16.4606 16.7121 16.2949 16.6717 16.1377C16.4337 15.2217 16.3214 14.6481 16.3386 13.9355C16.3597 13.073 16.613 12.4202 17.101 11.9496C17.5874 11.4805 18.3643 11.1462 19.6058 11.1216C20.4271 11.1241 20.8535 11.3862 20.9063 11.4787C20.9683 11.5879 21.0546 11.6813 21.1584 11.7518C21.2623 11.8224 21.3809 11.8681 21.5053 11.8855C22.1035 11.9686 22.3653 12.1928 22.5783 12.5486C22.7913 12.9043 22.9036 13.4394 22.897 14.0076C22.8857 14.9365 22.7371 15.6405 22.5895 16.0832C22.5354 16.2465 22.5339 16.4226 22.5854 16.5867C22.6368 16.7508 22.7385 16.8946 22.8762 16.9977C22.8889 17.0222 22.9029 17.0646 22.8922 17.1531C22.8922 17.1536 22.8922 17.1541 22.8922 17.1547C22.8477 17.525 22.7603 17.6636 22.7337 17.7008C22.5722 17.7425 22.4273 17.8325 22.3183 17.9587C22.2093 18.0849 22.1413 18.2413 22.1235 18.4071C22.1101 18.5329 21.8562 19.0803 21.5325 19.5042C21.3706 19.7161 21.1997 19.9115 21.0616 20.0519C20.9235 20.1923 20.7481 20.2975 20.8806 20.2281C20.7483 20.2976 20.6375 20.4019 20.5602 20.5297C20.4829 20.6576 20.4419 20.8041 20.4418 20.9536C20.4418 21.5815 20.4147 22.1191 20.4835 22.8819C20.4904 22.9548 20.5071 23.0264 20.5331 23.0949C20.8909 24.0553 21.7856 24.4539 22.6199 24.7669C23.2274 24.9948 23.8445 25.1874 24.4185 25.3899C24.4203 25.4436 24.4149 25.4934 24.4217 25.5501C24.4217 25.5506 24.4217 25.5511 24.4217 25.5517C24.4925 26.14 24.655 26.593 24.9246 26.937C25.0481 27.0946 25.229 27.1064 25.3874 27.2013C25.5548 27.7542 25.7827 28.279 26.1017 28.6987C26.3057 28.9672 26.5147 29.2069 26.7055 29.4018C26.7513 29.4486 26.807 29.4765 26.8465 29.5171C26.8498 29.9347 26.8515 30.3262 26.8208 30.76C26.7384 30.9394 26.5394 31.1434 26.0649 31.3685C25.5625 31.6069 24.8573 31.83 24.111 32.1021C23.3647 32.3741 22.5693 32.6981 21.8688 33.2264C21.1683 33.7546 20.5686 34.5235 20.3393 35.5406C20.2913 35.7528 20.3296 35.9753 20.4457 36.1593C20.5617 36.3433 20.7462 36.4736 20.9583 36.5216C21.1705 36.5696 21.393 36.5313 21.577 36.4152C21.761 36.2991 21.8913 36.1147 21.9393 35.9026C22.0785 35.285 22.3839 34.8916 22.857 34.5348C23.3301 34.1781 23.977 33.896 24.6715 33.6428C25.3661 33.3896 26.0999 33.1686 26.768 32.8516C27.436 32.5346 28.1084 32.0855 28.4016 31.2965C28.427 31.2279 28.4432 31.1563 28.4496 31.0835C28.5183 30.3207 28.4945 29.7846 28.4945 29.1552C28.4942 29.0056 28.453 28.8589 28.3754 28.731C28.2978 28.6031 28.1866 28.4989 28.054 28.4297C28.1877 28.4997 28.0136 28.3953 27.8763 28.2551C27.739 28.1149 27.568 27.9193 27.407 27.7074C27.085 27.2836 26.8329 26.7366 26.8192 26.6087C26.8014 26.4429 26.7334 26.2865 26.6244 26.1603C26.5154 26.0341 26.3705 25.9441 26.209 25.9024C26.1821 25.8649 26.095 25.7259 26.0505 25.3563C26.0501 25.3527 26.0508 25.3517 26.0505 25.3483C26.1031 25.2747 26.1431 25.193 26.169 25.1064C26.2648 25.0058 26.3334 24.8824 26.3684 24.7479C26.4034 24.6135 26.4037 24.4723 26.3692 24.3377C26.1312 23.4217 26.0189 22.8481 26.0361 22.1355C26.0572 21.273 26.3105 20.6202 26.7984 20.1496C27.2848 19.6805 28.0618 19.3462 29.3033 19.3216C30.1264 19.3236 30.5497 19.5864 30.6021 19.6787C30.6643 19.7881 30.7509 19.8816 30.855 19.9522C30.9591 20.0227 31.0781 20.0683 31.2027 20.0855C31.8009 20.1686 32.0627 20.3928 32.2758 20.7486C32.4888 21.1043 32.6011 21.641 32.5945 22.2092C32.5832 23.1381 32.4346 23.8405 32.287 24.2832C32.2325 24.4467 32.2308 24.6232 32.2823 24.7876C32.3337 24.9521 32.4357 25.0961 32.5737 25.1993C32.5864 25.2238 32.6003 25.2662 32.5897 25.3547C32.5451 25.725 32.4578 25.8652 32.4311 25.9024C32.2697 25.9441 32.1248 26.0341 32.0157 26.1603C31.9067 26.2865 31.8388 26.4429 31.8209 26.6087C31.8075 26.7345 31.5537 27.2803 31.2299 27.7042C31.0681 27.9161 30.8972 28.1115 30.7591 28.2519C30.621 28.3923 30.4456 28.4975 30.5781 28.4281C30.4456 28.4977 30.3346 28.6022 30.2572 28.7304C30.1799 28.8586 30.1391 29.0055 30.1393 29.1552C30.1393 29.7831 30.1122 30.3207 30.1809 31.0835C30.1916 31.2008 30.2275 31.3145 30.2861 31.4168C30.3447 31.519 30.4246 31.6075 30.5204 31.676C30.8642 32.2061 31.3514 32.5961 31.8866 32.85C32.5547 33.1669 33.2885 33.388 33.983 33.6412C34.6775 33.8943 35.3246 34.1781 35.7976 34.5348C36.2706 34.8916 36.576 35.2833 36.7153 35.901C36.7378 36.0072 36.7812 36.1078 36.843 36.1971C36.9047 36.2864 36.9835 36.3625 37.0749 36.4211C37.1663 36.4797 37.2684 36.5195 37.3753 36.5384C37.4822 36.5572 37.5918 36.5546 37.6977 36.5307C37.8036 36.5069 37.9037 36.4622 37.9922 36.3994C38.0807 36.3366 38.1559 36.2568 38.2133 36.1647C38.2708 36.0726 38.3094 35.97 38.3269 35.8629C38.3444 35.7557 38.3404 35.6462 38.3153 35.5406C38.0859 34.5236 37.4846 33.753 36.7842 33.2248C36.0838 32.6965 35.2898 32.3725 34.5436 32.1005C33.7974 31.8284 33.0921 31.6069 32.5897 31.3685C32.1011 31.1368 31.8874 30.9255 31.8113 30.7423C31.782 30.317 31.7822 29.9294 31.7857 29.5171C31.8255 29.4764 31.882 29.4488 31.9282 29.4018C32.1197 29.2071 32.3286 28.9687 32.5336 28.7003C32.854 28.2809 33.0828 27.7546 33.2511 27.2013C33.4105 27.1062 33.5933 27.0952 33.7172 26.937C33.9866 26.5929 34.1476 26.1393 34.2185 25.5517V25.5501C34.2801 25.0359 34.1302 24.6452 33.9158 24.3249C34.07 23.7472 34.2236 23.1175 34.2345 22.2284C34.2435 21.4543 34.1175 20.6308 33.6835 19.9062C33.2808 19.2335 32.5434 18.7224 31.6223 18.5336C31.0387 17.9524 30.2201 17.68 29.2985 17.68C29.2937 17.68 29.2888 17.68 29.284 17.68C27.7427 17.7081 26.5044 18.1561 25.6613 18.9692C24.8182 19.7824 24.425 20.9113 24.3961 22.0955C24.3961 22.096 24.3961 22.0966 24.3961 22.0971C24.3827 22.6492 24.4722 23.1689 24.5851 23.6971C24.0843 23.5301 23.6016 23.3836 23.1949 23.231C22.5139 22.9756 22.1924 22.7096 22.1138 22.5503C22.084 22.1216 22.0847 21.7316 22.0882 21.3171C22.1281 21.2764 22.1845 21.2488 22.2308 21.2018C22.4222 21.0071 22.6312 20.7671 22.8362 20.4987C23.1564 20.0794 23.3853 19.5545 23.5537 19.0013C23.713 18.9062 23.8959 18.8952 24.0197 18.737C24.2894 18.3926 24.4502 17.9385 24.521 17.3501C24.5595 17.0312 24.511 16.7645 24.4217 16.5285C25.0624 16.285 25.7432 16.0642 26.3916 15.7966C27.2064 15.4602 28.054 15.011 28.4016 14.0765C28.427 14.0079 28.4432 13.9363 28.4496 13.8635C28.5183 13.1007 28.4945 12.5646 28.4945 11.9352C28.4942 11.7856 28.453 11.6389 28.3754 11.511C28.2978 11.3831 28.1866 11.2789 28.054 11.2097C28.1877 11.2797 28.0136 11.1753 27.8763 11.0351C27.739 10.8949 27.568 10.6993 27.407 10.4874C27.085 10.0636 26.8329 9.51664 26.8192 9.3887C26.8014 9.2229 26.7334 9.06647 26.6244 8.94028C26.5154 8.81409 26.3705 8.72414 26.209 8.68241C26.1821 8.64488 26.095 8.50593 26.0505 8.13628C26.04 8.04818 26.0537 8.00443 26.0665 7.97933C26.1967 7.8819 26.295 7.74796 26.3489 7.59454C26.4028 7.44112 26.4099 7.27514 26.3692 7.11769C26.1312 6.20172 26.0189 5.62809 26.0361 4.91554C26.0572 4.05298 26.3105 3.40018 26.7984 2.9296C27.2848 2.46049 28.0618 2.12622 29.3033 2.10159C30.1264 2.10357 30.5497 2.36637 30.6021 2.45874C30.6643 2.56807 30.7509 2.66162 30.855 2.73216C30.9591 2.80269 31.0781 2.84833 31.2027 2.86554C31.8009 2.94858 32.0627 3.17284 32.2758 3.52859C32.4888 3.88433 32.6011 4.42096 32.5945 4.98921C32.5832 5.9181 32.4346 6.62047 32.287 7.06323C32.2325 7.22669 32.2308 7.40316 32.2823 7.56761C32.3337 7.73205 32.4357 7.87611 32.5737 7.97933C32.5864 8.0038 32.6003 8.04619 32.5897 8.13468C32.5451 8.50505 32.4578 8.64523 32.4311 8.68241C32.2697 8.72414 32.1248 8.81409 32.0157 8.94028C31.9067 9.06647 31.8388 9.2229 31.8209 9.3887C31.8075 9.51446 31.5537 10.0603 31.2299 10.4842C31.0681 10.6961 30.8972 10.8915 30.7591 11.0319C30.621 11.1723 30.4456 11.2775 30.5781 11.2081C30.4456 11.2777 30.3346 11.3822 30.2572 11.5104C30.1799 11.6386 30.1391 11.7855 30.1393 11.9352C30.1393 12.5631 30.1122 13.1007 30.1809 13.8635C30.1916 13.9808 30.2275 14.0945 30.2861 14.1968C30.3447 14.299 30.4246 14.3875 30.5204 14.456C30.8642 14.9861 31.3514 15.3761 31.8866 15.63C32.5547 15.9469 33.2885 16.168 33.983 16.4212C34.6775 16.6743 35.3246 16.9581 35.7976 17.3148C36.2706 17.6716 36.576 18.0633 36.7153 18.681C36.7378 18.7872 36.7812 18.8878 36.843 18.9771C36.9047 19.0664 36.9835 19.1425 37.0749 19.2011C37.1663 19.2597 37.2684 19.2995 37.3753 19.3184C37.4822 19.3372 37.5918 19.3346 37.6977 19.3107C37.8036 19.2869 37.9037 19.2423 37.9922 19.1794C38.0807 19.1166 38.1559 19.0368 38.2133 18.9447C38.2708 18.8526 38.3094 18.75 38.3269 18.6429C38.3444 18.5357 38.3404 18.4262 38.3153 18.3206C38.0859 17.3036 37.4846 16.533 36.7842 16.0048C36.0838 15.4765 35.2898 15.1525 34.5436 14.8805C33.7974 14.6084 33.0921 14.3869 32.5897 14.1485C32.1011 13.9168 31.8874 13.7055 31.8113 13.5223C31.782 13.097 31.7822 12.7094 31.7857 12.2971C31.8255 12.2564 31.882 12.2288 31.9282 12.1818C32.1197 11.9871 32.3286 11.7487 32.5336 11.4803C32.854 11.0609 33.0828 10.5346 33.2511 9.98128C33.4105 9.88622 33.5933 9.87517 33.7172 9.71702C33.9866 9.37293 34.1476 8.91926 34.2185 8.33167V8.33007C34.2801 7.81594 34.1302 7.42515 33.9158 7.10488C34.07 6.52721 34.2236 5.89754 34.2345 5.00843C34.2435 4.23435 34.1175 3.41077 33.6835 2.68616C33.2808 2.01358 32.5434 1.50245 31.6223 1.31363C31.0387 0.732377 30.2201 0.459993 29.2985 0.459993C29.2937 0.45995 29.2888 0.45995 29.284 0.459993Z" fill="url(#paint0_linear_51_1240)"/>
<defs>
<linearGradient id="paint0_linear_51_1240" x1="19.4847" y1="0.459961" x2="19.4847" y2="36.5508" gradientUnits="userSpaceOnUse">
<stop stop-color="#FFC619"/>
<stop offset="0.479167" stop-color="#F69020"/>
<stop offset="1" stop-color="#EA422A"/>
</linearGradient>
</defs>
</svg>
