<svg width="83" height="83" viewBox="0 0 83 83" fill="none" xmlns="http://www.w3.org/2000/svg">
<circle cx="41.5" cy="41.5" r="41.5" fill="url(#paint0_linear_9642_2)"/>
<path d="M53.3467 28.6484C52.9674 28.6652 52.6141 28.7756 52.3031 28.9014C52.0117 29.0186 50.8984 29.4961 49.1449 30.2481C47.3898 31.0007 45.0659 31.9984 42.5869 33.0645C37.629 35.1966 32.0549 37.5965 29.1999 38.8249C29.0925 38.8711 28.7179 38.9907 28.3203 39.3011C27.9227 39.6115 27.5 40.2547 27.5 40.9714C27.5 41.5493 27.7754 42.1234 28.1221 42.4662C28.4687 42.8089 28.8355 42.9783 29.1497 43.1065C30.2898 43.5716 33.8255 45.0185 34.4932 45.2917C34.7281 46.0115 36.0079 49.9263 36.3047 50.8858C36.5003 51.5189 36.6866 51.9154 36.929 52.2302C37.0503 52.3875 37.1912 52.5254 37.362 52.6335C37.4302 52.6767 37.5051 52.7099 37.5807 52.7406L37.5853 52.7428C37.6027 52.7498 37.6177 52.7617 37.6354 52.7679C37.6688 52.7796 37.6911 52.781 37.7357 52.7907C37.9134 52.8481 38.0928 52.8841 38.2529 52.8841C38.9356 52.8841 39.3535 52.5081 39.3535 52.5081L39.3786 52.4899L42.89 49.4525L47.1488 53.4811C47.2087 53.5659 47.768 54.3333 49.0013 54.3333C49.7336 54.3333 50.3145 53.9659 50.6875 53.5746C51.0605 53.1832 51.2928 52.7721 51.3916 52.2552V52.2529C51.484 51.7645 55.4089 31.6152 55.4089 31.6152L55.402 31.6426C55.5169 31.1182 55.547 30.6298 55.4202 30.1478C55.2935 29.6658 54.9594 29.2044 54.5452 28.9561C54.1311 28.7078 53.7259 28.6317 53.3467 28.6484ZM53.1279 31.0866C53.1223 31.1206 53.1321 31.1035 53.1234 31.1436L53.1211 31.1572L53.1188 31.1709C53.1188 31.1709 49.2426 51.0624 49.0993 51.82C49.1098 51.7628 49.0618 51.8765 49.0127 51.9453C48.9432 51.8974 48.8008 51.8359 48.8008 51.8359L48.778 51.8109L42.9606 46.308L38.8477 49.8626L40.0713 44.9636C40.0713 44.9636 47.7202 37.0458 48.181 36.585C48.552 36.2163 48.6299 36.0878 48.6299 35.9606C48.6299 35.7903 48.5411 35.6667 48.3428 35.6667C48.1643 35.6667 47.9242 35.8402 47.7959 35.9219C46.1239 36.9877 38.7838 41.2657 35.4935 43.1794C34.9706 42.9654 31.3379 41.4784 30.1068 40.9759C30.1161 40.9718 30.113 40.9733 30.1227 40.9691C32.9785 39.7404 38.5502 37.3405 43.5075 35.2087C45.9861 34.1428 48.3118 33.1443 50.0654 32.3923C51.7921 31.6518 52.9918 31.1422 53.1279 31.0866Z" fill="#2C383F"/>
<defs>
<linearGradient id="paint0_linear_9642_2" x1="41.5" y1="0" x2="8.39133e-07" y2="55" gradientUnits="userSpaceOnUse">
<stop stop-color="#FFC619"/>
<stop offset="0.463542" stop-color="#F69020"/>
<stop offset="1" stop-color="#EC5128"/>
</linearGradient>
</defs>
</svg>
